<?xml version="1.0" encoding="UTF-8" standalone="no"?>
<svg width="154.73" xmlns="http://www.w3.org/2000/svg" height="129.56">
 <g stroke-width=".036" stroke-miterlimit="10" stroke="#000" fill-rule="evenodd">
  <path id="svg_2" d="m11.844 47.754l-11.196-15.588c2.088-7.848 4.032-12.996 5.832-15.588 1.764-2.556 2.736-0.936 4.86 0 1.98 0.684 4.788 1.332 7.308 4.86 2.484 3.564 4.788 9.036 7.308 16.56 1.44-3.492 2.736-5.652 3.888-6.336 1.08-0.72 2.16-0.108 2.952 1.98-0.684-10.584 0.071999-17.604 2.412-21.456 2.268-3.852 8.64-2.808 11.196-1.44 2.52 1.332 3.78 4.32 3.924 9.252 2.232-6.192 5.796-10.764 10.692-14.148 4.896-3.492 15.408-6.228 18.503-5.832 2.953 0.36 2.844 3.168-0.467 8.28 7.164-1.26 11.771-1.188 14.111 0.504 2.195 1.62 1.297 6.696-0.469 9.252-1.871 2.556-5.146 4.356-10.223 5.832 2.951 2.484 6.73 6.084 11.195 11.196 4.465 5.004 9.611 11.34 15.588 19.008 6.84-3.636 11.664-5.004 14.615-4.392 2.881 0.756 1.908 5.328 2.916 8.28 0.793 2.736 3.457 5.868 2.449 8.28-1.008 2.375-3.781 4.283-8.316 5.867 4.787-2.23 8.641-2.23 11.699 0 2.846 2.197 3.385 9.396 6.336 13.141 3.025 3.709 6.877 6.443 11.701 8.748 4.283 6.695 5.256 10.871 2.916 12.672-2.484 1.764-7.992 1.115-17.064-1.943-3.744-1.332-6.191-1.008-7.775 0.971-1.549 1.945-2.088 5.473-1.477 10.729h-7.309c0.072006 5.545-1.908 9.18-6.336 11.197-4.5 1.943-10.08 2.951-19.943 0.504-10.008-2.629-29.952-10.189-38.988-15.588-9.036-5.473-13.752-10.801-14.58-16.561l-38.986-15.122c-1.26-6.299-1.512-10.799-0.468-13.643 1.008-2.881 3.06-3.961 6.3-3.385-1.08-2.916-1.368-5.688-0.468-8.316 0.864-2.735 2.52-5.327 5.364-7.775z"/>
  <path id="svg_3" fill="#ffd400" d="m27.9 56.034l-19.476-37.008c2.88-0.936 5.472-0.288 7.776 1.944 2.16 2.16 3.096 4.644 5.868 11.196 2.844 6.516 6.228 15.624 10.728 27.756-1.62-1.297-3.24-2.592-4.896-3.888z"/>
  <g fill="#ff0">
   <path id="svg_4" d="m6.948 20.466l-3.887 11.196 12.672 16.092 8.784 6.336-17.569-33.624z"/>
   <path id="svg_5" d="m31.32 61.866l-18.504-12.168c-1.332 1.512-2.304 3.348-2.916 5.364-0.684 2.088-1.008 4.176-0.972 6.804l27.757 13.644c-3.06-2.664-4.968-5.004-5.868-7.309-0.937-2.34-0.721-4.355 0.503-6.335z"/>
   <path id="svg_6" d="m46.908 80.873l-38.484-14.111c-2.664 0.071999-4.356 0.396-5.364 0.973-0.972 0.504-2.232 1.439-0.468 2.412 1.656 0.97099 4.248 0.684 10.692 3.42 6.48 2.699 15.552 6.875 27.792 12.672-0.684-0.036995-0.684-0.036995 0 0 0.612-0.036995 1.908-0.036995 3.888 0-2.016-1.045-2.736-2.016-2.448-2.916 0.36-0.901 1.728-1.764 4.392-2.45z"/>
  </g>
  <path id="svg_7" fill="#ffd400" d="m39.096 93.545l0.504-5.363-37.512-16.561 1.476 8.785 35.532 13.139z"/>
  <path id="svg_8" fill="#ff0" d="m43.488 92.07c0.035999 4.248 1.008 7.775 2.916 10.727 1.872 2.773 5.328 5.041 8.28 6.805 2.844 1.729 2.664 1.367 8.784 3.924 6.12 2.52 19.8 8.893 27.288 11.197 7.236 2.195 12.527 2.195 16.561 1.943 4.031-0.359 6.623-1.656 7.775-3.889-8.352-1.439-18.145-4.645-30.203-9.756-12.025-5.22-25.633-12.06-41.401-20.951z"/>
  <path id="svg_9" fill="#ffd400" d="m118.01 115.47c-8.531-2.34-18.469-5.65-30.203-10.223-11.773-4.572-24.949-10.26-39.925-17.064l-2.448 2.447c9.36 6.373 19.692 11.916 31.68 17.029 11.953 5.004 24.876 9.396 39.457 13.176 0.467-1.764 0.935-3.564 1.439-5.365z"/>
  <path id="svg_10" fill="#ff0" d="m61.021 91.602c9.288-3.852 18.613-7.379 28.259-10.729 9.576-3.42 23.256-6.551 29.232-9.252 5.869-2.771 5.436-4.391 6.336-6.803 0.9-2.448 0.576-5.004-0.973-7.812 1.152 2.952-1.475 5.76-8.279 8.279-6.912 2.484-22.355 5.184-32.148 6.84-9.828 1.584-18.467 2.557-26.315 2.916-5.904 3.385-9.36 5.797-10.224 7.777-0.9 1.836 2.34 1.871 4.86 3.42 2.303 1.512 5.436 3.168 9.252 5.364z"/>
  <path id="svg_11" fill="#ffd400" d="m62.964 72.594l6.84-6.336c6.624-0.828 13.608-1.98 20.952-3.888 7.381-1.908 17.641-5.688 22.859-7.308 5.004-1.692 6.049-2.88 7.309-2.448 1.225 0.468 1.225 3.024 0 4.896-1.26 1.692-0.18 3.096-7.309 5.328-7.344 2.195-26.963 5.508-35.531 7.309-8.459 1.654-13.5 2.374-15.12 2.447z"/>
  <path id="svg_12" fill="#ff0" d="m92.196 58.482c-3.096-1.116-5.543-3.492-7.775-6.84-2.305-3.6-4.787-9.216-5.363-13.644-0.613-4.392 0.035004-8.604 1.943-12.636l25.344 29.196c-4.718 1.296-9.432 2.592-14.149 3.924z"/>
  <path id="svg_13" fill="#ffd400" d="m44.964 60.894c3.996-5.436 8.496-10.332 13.644-15.084 5.184-4.788 10.728-9.036 17.028-13.14l2.448-6.84-15.12-0.972c-10.188 7.992-17.604 15.372-22.392 22.428-4.824 7.128-7.164 14.364-6.336 19.476 0.864 4.824 4.464 8.064 11.196 9.721-1.584-2.988-2.34-5.652-2.412-8.281-0.071999-2.665 0.576-5.004 1.944-7.308z"/>
  <path id="svg_14" fill="#ff0" d="m48.349 75.51l9.756-6.336c-2.016-3.096-2.412-5.688-1.476-7.776 1.008-2.124 3.348-3.744 7.308-4.86-1.476-0.792-1.8-2.376-0.972-4.896 0.792-2.52 2.7-5.976 5.868-10.224-3.168 2.7-6.048 5.256-8.784 7.813-2.772 2.376-5.364 4.356-7.776 7.308-2.52 3.096-6.192 7.308-6.84 10.693-0.684 3.129 0.287 5.938 2.916 8.278z"/>
  <path id="svg_15" fill="#ffd400" d="m73.692 39.474c-2.52 2.952-4.176 5.616-5.364 8.28-1.152 2.592-4.176 5.868-1.44 7.308 2.7 1.368 8.496 1.692 17.532 0.972-1.549-2.196-3.133-4.5-4.896-7.308-1.799-2.844-3.744-5.796-5.832-9.252z"/>
  <path id="svg_16" fill="#ff0" d="m80.497 60.426c-4.716-1.044-8.604-1.44-11.664-1.476-3.168 0-5.544 0.035999-6.84 1.476-1.332 1.44-1.656 3.528-0.972 6.805l8.784-3.889c3.563-0.972 7.128-1.944 10.692-2.916z"/>
  <path id="svg_17" fill="#ffd400" d="m51.769 30.222c-0.432-5.976 0.252-10.62 2.448-14.616 2.196-3.924 6.48-6.624 10.224-8.784 3.672-2.412 9.216-4.824 11.196-4.86 1.728-0.036 0.792 2.556-0.468 4.86-1.368 2.196-5.796 5.508-7.308 8.28-1.584 2.7-2.232 5.256-1.944 7.812-1.584-0.612-3.492-0.288-5.868 0.972-2.341 1.188-5.149 3.348-8.28 6.336z"/>
  <g fill="#ff0">
   <path id="svg_18" d="m74.196 22.41l3.384-12.168c-2.448-0.792-4.392-0.144-5.832 1.944-1.476 1.98-2.448 5.436-2.916 10.224h5.364z"/>
   <path id="svg_19" d="m79.524 9.774c4.752-1.224 7.957-1.44 9.756-0.504 1.764 1.008 2.088 3.744 0.973 5.832-1.26 1.872-5.652 4.212-7.775 5.364-2.125 1.044-3.708 1.368-4.896 0.972 0.647-3.888 1.294-7.776 1.942-11.664z"/>
   <path id="svg_20" d="m48.349 32.67c0.612-4.752 0.612-8.82 0-12.204-0.612-3.6-1.908-7.38-3.888-8.28-2.196-0.864-7.38-0.828-8.748 3.42s-1.26 11.412 0.468 21.924l5.868 3.888c2.087-2.917 4.176-5.832 6.3-8.748z"/>
  </g>
  <path id="svg_21" fill="#ffd400" d="m41.076 43.362l-9.756-8.28-2.916 3.888 5.364 16.092c0.684-3.276 1.656-5.868 2.916-7.776 1.189-1.98 2.7-3.24 4.392-3.924z"/>
  <path id="svg_22" fill="#ff0" d="m74.196 94.986c6.083 0.756 13.357 1.691 22.392 2.951 8.965 1.225 19.26 2.629 31.176 4.355-1.332 1.514-2.123 3.098-2.916 4.896-0.721 1.764-1.26 3.709-1.477 5.832 3.277 2.629 0.938 2.52-7.307-0.467-8.353-3.059-22.032-8.819-41.868-17.567z"/>
  <path id="svg_23" fill="#ffd400" d="m112.64 76.986c11.771 8.244 16.596 12.527 14.615 13.139-2.16 0.504-10.908-2.699-26.783-9.756 4.031-1.115 8.1-2.23 12.168-3.383z"/>
  <path id="svg_24" fill="#ff0" d="m126.29 93.545l-2.412 6.336-14.146-2.447-24.337-11.196 12.672-4.393c4.104 2.305 8.352 4.32 13.139 6.336 4.752 1.981 9.648 3.673 15.084 5.364z"/>
  <path id="svg_25" fill="#fff" d="m83.448 86.705l-10.728 3.42c12.132 2.809 19.296 4.32 21.925 4.393 2.34 0.071999-4.896-2.664-6.84-3.889-1.908-1.332-3.312-2.592-4.357-3.924z"/>
  <path id="svg_26" fill="#ff0" d="m131.18 89.154c3.924 0.143 7.236 0.791 10.225 1.943 3.023 1.08 5.508 2.34 7.309 4.896 1.654 2.484 2.41 5.939 2.41 10.223l-23.867-6.84c2.305-1.008 3.672-2.123 4.393-3.887 0.68199-1.692 0.42999-3.85-0.47-6.335z"/>
  <path id="svg_27" fill="#ffd400" d="m119.48 76.482c3.203-3.996 6.119-5.076 8.748-3.385 2.592 1.764 4.824 6.119 6.84 13.607h-6.336c-1.549-1.908-2.881-3.311-4.393-4.355-1.656-1.115-3.492-1.08-4.393-1.98-0.755-1.008-1.042-2.303-0.466-3.887z"/>
 </g>
</svg>
