<?xml version="1.0" encoding="UTF-8" standalone="no"?>
<!-- Created with Inkscape (http://www.inkscape.org/) -->

<svg
   xmlns:dc="http://purl.org/dc/elements/1.1/"
   xmlns:cc="http://creativecommons.org/ns#"
   xmlns:rdf="http://www.w3.org/1999/02/22-rdf-syntax-ns#"
   xmlns:svg="http://www.w3.org/2000/svg"
   xmlns="http://www.w3.org/2000/svg"
   xmlns:sodipodi="http://sodipodi.sourceforge.net/DTD/sodipodi-0.dtd"
   xmlns:inkscape="http://www.inkscape.org/namespaces/inkscape"
   version="1.1"
   width="22"
   height="22"
   id="svg6190"
   inkscape:version="0.92.2 5c3e80d, 2017-08-06"
   sodipodi:docname="dark_patate.svg"
   inkscape:export-filename="../light_prevframe.png"
   inkscape:export-xdpi="90"
   inkscape:export-ydpi="90">
  <sodipodi:namedview
     pagecolor="#ffffff"
     bordercolor="#666666"
     borderopacity="1"
     objecttolerance="10"
     gridtolerance="10"
     guidetolerance="10"
     inkscape:pageopacity="0"
     inkscape:pageshadow="2"
     inkscape:window-width="2560"
     inkscape:window-height="1395"
     id="namedview4440"
     showgrid="true"
     inkscape:zoom="21.454545"
     inkscape:cx="2.4402473"
     inkscape:cy="7.3350005"
     inkscape:window-x="1920"
     inkscape:window-y="0"
     inkscape:window-maximized="0"
     inkscape:current-layer="svg6190"
     inkscape:snap-bbox="true"
     inkscape:snap-bbox-edge-midpoints="true">
    <inkscape:grid
       type="xygrid"
       id="grid3250" />
  </sodipodi:namedview>
  <metadata
     id="metadata6196">
    <rdf:RDF>
      <cc:Work
         rdf:about="">
        <dc:format>image/svg+xml</dc:format>
        <dc:type
           rdf:resource="http://purl.org/dc/dcmitype/StillImage" />
        <dc:title></dc:title>
      </cc:Work>
    </rdf:RDF>
  </metadata>
  <defs
     id="defs6194" />
  <path
     style="fill:#373737;fill-opacity:1;stroke-width:0.05221467"
     d="M 9.0445257,20.024253 C 8.1681954,19.895109 7.715093,19.329899 7.989889,18.708678 8.0467722,18.580094 8.1782692,18.407097 8.2821135,18.324237 8.385959,18.241374 8.4709234,18.15438 8.4709245,18.130903 8.4709255,18.107429 8.3616109,17.954701 8.2280037,17.791508 8.0943965,17.628318 7.912724,17.342069 7.8242868,17.155401 7.6822791,16.855661 7.6627282,16.758051 7.6569507,16.319967 l -0.00656,-0.49604 -0.4382297,-0.03197 c -0.2410202,-0.0176 -0.5383926,-0.0597 -0.6608217,-0.09358 -0.2389274,-0.06612 -0.5624346,-0.316111 -0.6122745,-0.473145 -0.02834,-0.08927 -0.08295,-0.09415 -0.7571743,-0.06745 -0.8599777,0.03404 -1.2520529,-0.03846 -1.9063389,-0.352534 -0.8385702,-0.402534 -1.5244244,-1.183947 -1.8001427,-2.050953 -0.070414,-0.22141 -0.025882,-0.319524 0.1731493,-0.381499 0.2891551,-0.09005 0.7654519,-0.349698 0.7654519,-0.417293 0,-0.04141 -0.1938618,-0.282528 -0.4308027,-0.535796 C 1.4369557,10.835805 1.2532037,10.510549 1.2616647,10.142513 1.2651444,9.9934312 1.2745907,9.4250194 1.2827681,8.879376 1.2996755,7.751641 1.3508889,7.5010665 1.6007865,7.3234296 1.6890897,7.2606634 1.9936118,7.0144044 2.2775085,6.776187 2.8580211,6.2890794 3.087767,6.1425556 3.5685385,5.9528112 3.7520163,5.8803992 4.2310867,5.6561818 4.6331395,5.4545516 5.2799124,5.1301936 5.4080983,5.0843796 5.745596,5.0569585 6.2401266,5.0167789 6.3338132,4.9396255 6.6219847,4.3352329 6.9955775,3.5516842 7.5955418,3.0671374 8.6845541,2.6694508 9.6155949,2.329452 10.090196,2.2020641 10.235474,2.2531674 c 0.100518,0.035361 0.239486,0.012027 0.555391,-0.093238 1.15066,-0.3834365 2.577417,-0.3033344 3.532024,0.1982978 0.460219,0.2418389 0.836144,0.6425463 0.986786,1.0518367 0.07847,0.2131932 0.178827,0.3605239 0.346672,0.5089185 l 0.236236,0.2088589 0.05722,0.5221466 c 0.101035,0.9218962 -0.111853,1.7407352 -0.630702,2.4258888 -0.118737,0.1567979 -0.198499,0.301775 -0.177245,0.3221716 0.02126,0.020397 0.171819,0.083498 0.334589,0.1402241 0.589667,0.205506 0.960375,0.5618513 1.086928,1.0448193 0.04799,0.1831298 0.09285,0.2399332 0.237182,0.3002344 0.0979,0.040906 0.24702,0.074371 0.331379,0.074371 0.09958,0 0.232164,0.065823 0.377992,0.1876579 0.123537,0.1032119 0.431651,0.2916394 0.6847,0.4187271 0.587538,0.2950805 0.82973,0.5167679 1.053736,0.9645319 0.259716,0.519141 0.310067,0.832217 0.276398,1.718609 -0.03044,0.80127 -0.159458,1.437346 -0.423203,2.086428 -0.09275,0.228237 -0.110086,0.322403 -0.06556,0.355666 0.03332,0.02489 0.250216,0.07151 0.481982,0.103609 0.618843,0.08571 0.831881,0.185063 0.931671,0.434464 0.117696,0.294149 0.155697,0.718106 0.08715,0.972359 -0.05387,0.199846 -0.09881,0.243167 -0.509362,0.49116 -0.247652,0.149588 -0.848457,0.571665 -1.335124,0.937948 -1.018384,0.766472 -1.269641,0.910716 -2.023717,1.161801 -0.669448,0.222906 -1.098341,0.305976 -1.362049,0.263808 -0.277772,-0.04441 -0.416132,0.0013 -0.712165,0.235295 -0.141212,0.111623 -0.333069,0.242416 -0.426349,0.290653 -0.21464,0.110993 -0.783996,0.217687 -1.389431,0.260368 -0.258462,0.01822 -0.631185,0.05843 -0.828272,0.08939 -0.329553,0.05174 -0.366633,0.04796 -0.461552,-0.04696 -0.101123,-0.101123 -0.109318,-0.10131 -0.404094,-0.0096 -0.599948,0.186725 -1.3962578,0.245512 -2.0401912,0.150615 z m 2.4541003,-1.40644 c 0.05325,-0.0285 0.125373,-0.140108 0.160278,-0.248022 0.09246,-0.28583 0.252464,-0.587815 0.311466,-0.587815 0.0805,0 0.06014,0.179234 -0.04938,0.434704 -0.09609,0.224136 -0.09419,0.296302 0.0077,0.296302 0.02553,0 0.107778,-0.134058 0.182787,-0.297908 0.122958,-0.268574 0.135836,-0.355971 0.130782,-0.887648 -0.0032,-0.324357 0.01418,-0.589743 0.03837,-0.589743 0.09313,0 0.158686,0.350251 0.160279,0.856281 0.0014,0.475138 0.0092,0.517362 0.07832,0.426052 0.05731,-0.07576 0.07667,-0.256263 0.07667,-0.714868 0,-0.558702 0.04258,-0.761981 0.13001,-0.620532 0.01803,0.02919 0.08726,0.05308 0.153858,0.05308 0.191646,0 0.237984,0.109593 0.27323,0.64615 0.01815,0.276416 0.05046,0.502574 0.07176,0.502574 0.07475,0 0.102135,-0.169241 0.102135,-0.630847 0,-0.370635 0.01536,-0.465661 0.07524,-0.465661 0.124426,0 0.147536,0.09496 0.140811,0.578604 -0.0052,0.376595 0.0072,0.456921 0.06674,0.434045 0.145837,-0.05595 0.21361,-0.345547 0.199064,-0.850545 -0.01563,-0.542955 0.0099,-0.684251 0.123939,-0.684251 0.06149,0 0.06992,0.05034 0.04275,0.255203 -0.02578,0.194351 -0.0076,0.325546 0.07652,0.550212 0.06072,0.162256 0.110376,0.352869 0.110376,0.423589 0,0.279779 0.217004,0.06761 0.366826,-0.358676 0.115592,-0.328894 0.137696,-0.926413 0.04642,-1.255145 -0.07831,-0.281991 -0.143923,-0.179344 -0.162564,0.254281 -0.01215,0.283097 -0.03337,0.365502 -0.09403,0.365502 -0.06146,0 -0.08125,-0.08437 -0.09194,-0.39161 -0.01023,-0.294187 -0.04638,-0.457608 -0.145343,-0.656898 -0.155277,-0.312716 -0.131138,-0.455436 0.06856,-0.405316 0.140647,0.0353 0.139608,0.04487 0.02555,-0.235395 -0.01937,-0.04759 0.0035,-0.06442 0.07028,-0.0517 0.126319,0.02406 0.418419,0.458074 0.498462,0.740632 0.07236,0.255445 0.08808,1.038797 0.02882,1.436245 -0.05481,0.367636 0.06566,0.34936 0.144423,-0.02191 0.03586,-0.169063 0.08136,-0.257398 0.132559,-0.257398 0.121462,0 0.12256,0.287577 0.0022,0.568429 -0.135898,0.317039 -0.134295,0.345327 0.01957,0.345327 0.224874,0 0.518084,-0.311084 0.627487,-0.665737 0.06395,-0.207275 -0.09133,-0.133132 -0.251232,0.119972 -0.08244,0.130497 -0.163686,0.223481 -0.180534,0.206632 -0.01684,-0.01684 -0.02417,-0.223521 -0.01622,-0.459272 0.01726,-0.513376 -0.03508,-0.76828 -0.313165,-1.525146 -0.116063,-0.315899 -0.223422,-0.61548 -0.238569,-0.665737 -0.05019,-0.166465 0.08535,-0.09473 0.227854,0.120589 0.09183,0.138764 0.191258,0.22216 0.287921,0.241493 0.161718,0.03234 0.191715,0.09282 0.06933,0.139788 -0.09856,0.03781 -0.101772,0.209938 -0.0055,0.2899 0.105424,0.08749 0.321485,-0.26169 0.24748,-0.399972 -0.05863,-0.109582 -0.215944,-0.903151 -0.215944,-1.08941 0,-0.06862 0.02095,-0.124768 0.04655,-0.124768 0.07603,0 0.198325,0.361466 0.371726,1.098856 0.08977,0.381729 0.208588,0.813448 0.264052,0.959374 0.126219,0.332083 0.125709,0.376283 -0.0095,0.8213 -0.06071,0.19983 -0.09694,0.376731 -0.08057,0.393112 0.0705,0.0705 0.204058,-0.05174 0.304403,-0.278579 0.146204,-0.330516 0.109164,-0.752686 -0.13437,-1.532051 -0.184688,-0.591022 -0.245108,-1.096509 -0.131062,-1.096509 0.03131,0 0.101002,0.05287 0.154908,0.117479 l 0.09801,0.117479 0.0017,-0.143591 c 0.0023,-0.192804 0.133258,-0.186985 0.235361,0.01056 0.155986,0.301641 0.06446,0.524105 -0.119439,0.290312 -0.08547,-0.108669 -0.108438,-0.116922 -0.134717,-0.04844 -0.06013,0.156684 -0.03373,0.311213 0.159837,0.935554 0.106843,0.344616 0.202721,0.637645 0.213066,0.651171 0.06545,0.08557 0.119306,-0.190926 0.106491,-0.546742 -0.01746,-0.485175 0.06282,-0.583711 0.14374,-0.17641 0.0299,0.150457 0.08075,0.282364 0.11305,0.293127 0.08703,0.02902 0.133012,-0.17106 0.09329,-0.4061 -0.02819,-0.166833 -0.01933,-0.206657 0.04598,-0.206657 0.119185,0 0.206843,0.387173 0.169413,0.748292 -0.03507,0.3384 0.03825,0.38547 0.172108,0.110497 0.06182,-0.126974 0.06323,-0.211408 0.0086,-0.518288 -0.03586,-0.201632 -0.07655,-0.460591 -0.09041,-0.575463 -0.02381,-0.19736 -0.02066,-0.203215 0.05746,-0.106359 0.08872,0.110013 0.215375,0.505033 0.264755,0.825758 0.01671,0.108493 0.05267,0.183468 0.07996,0.166615 0.07093,-0.04384 0.05986,-0.314525 -0.02771,-0.677161 -0.106436,-0.44076 -0.102938,-0.612508 0.01198,-0.591132 0.06732,0.01253 0.118858,0.13011 0.195804,0.44678 0.05744,0.236383 0.127926,0.436055 0.156646,0.443715 0.09109,0.0243 0.09,-0.220721 -0.0025,-0.562522 -0.08846,-0.326839 -0.0789,-0.493954 0.02827,-0.493954 0.03033,0 0.07747,0.05874 0.104775,0.130539 0.08657,0.227698 0.163253,0.153235 0.126614,-0.122952 -0.02994,-0.225752 -0.02203,-0.25652 0.07236,-0.281202 0.09198,-0.02406 0.102036,-0.05711 0.07614,-0.250147 -0.02924,-0.217976 -0.02707,-0.221902 0.108592,-0.195971 0.08988,0.01719 0.138431,0.0036 0.138431,-0.03861 0,-0.03579 0.05914,-0.103829 0.13142,-0.151187 0.106733,-0.06994 0.121449,-0.104742 0.07832,-0.185322 -0.08935,-0.16697 -0.06524,-0.314939 0.05134,-0.314939 0.142509,0 0.131178,-0.113305 -0.0261,-0.261072 -0.184826,-0.173639 -0.173191,-0.313289 0.0261,-0.313289 0.186281,0 0.212808,-0.122913 0.04583,-0.21228 -0.106711,-0.05712 -0.109472,-0.0821 -0.0741,-0.674627 0.03282,-0.549908 0.02705,-0.622888 -0.05436,-0.686585 -0.0501,-0.03919 -0.234102,-0.216154 -0.408888,-0.393234 C 18.143792,9.9454063 17.965039,9.8319117 17.666764,9.767628 17.569589,9.7466829 17.388292,9.6518576 17.263896,9.5569037 16.675721,9.1079391 15.58863,8.9751889 14.499322,9.2193076 c -0.319286,0.071555 -0.399617,0.115699 -0.812563,0.4465452 -0.482549,0.3866122 -0.671376,0.4922402 -0.882017,0.4933862 -0.27939,0.0014 -0.334338,0.06139 -0.337022,0.367231 l -0.0023,0.270146 -0.374689,0.09539 c -0.206081,0.05247 -0.452794,0.134842 -0.548255,0.183063 -0.265817,0.134277 -1.138914,0.800281 -1.144334,0.872904 -0.0026,0.03535 -0.0085,0.13281 -0.01306,0.216559 -0.0077,0.141011 -0.0295,0.156592 -0.295436,0.210613 -0.4230239,0.08593 -0.7612221,0.295151 -1.297401,0.802603 -0.3811744,0.360752 -0.4787266,0.48279 -0.478359,0.598434 5.854e-4,0.184537 -0.1297192,0.498623 -0.2678786,0.645688 -0.098353,0.104698 -0.1073611,0.185254 -0.11499,1.028715 -0.00645,0.70945 0.00758,0.930522 0.0624,0.983631 0.058541,0.05674 0.080954,0.05135 0.1305368,-0.03134 0.1021196,-0.170331 0.2463023,-0.299212 0.3111428,-0.278116 0.098999,0.03221 0.1776986,0.249736 0.2089924,0.577659 0.028596,0.299601 0.026743,0.30492 -0.1242507,0.357558 -0.1529289,0.05332 -0.1815158,0.117721 -0.1215795,0.273911 0.040355,0.105171 0.1181892,0.104896 0.235032,-8.46e-4 0.1300067,-0.117661 0.2032069,-0.04887 0.2032069,0.190948 0,0.113183 0.021912,0.205777 0.048695,0.205777 0.081547,0 0.1187773,-0.201223 0.099848,-0.539708 -0.016806,-0.300357 -0.010131,-0.322948 0.099479,-0.338519 0.064622,-0.0092 0.1174826,-0.03855 0.1174826,-0.06526 0,-0.02672 0.031471,-0.04858 0.069942,-0.04858 0.1043889,0 0.1997384,0.247855 0.2309986,0.600469 0.027305,0.30796 0.032187,0.316173 0.2870369,0.482984 0.3115928,0.203949 0.3403908,0.206741 0.4041038,0.03916 0.0273,-0.0718 0.07371,-0.130535 0.103125,-0.130535 0.0696,0 0.06916,0.421993 -6.48e-4,0.605572 -0.0375,0.09864 -0.03739,0.159202 3.66e-4,0.196966 0.09663,0.0966 0.220091,-0.0964 0.282132,-0.441057 0.0345,-0.191618 0.08914,-0.33689 0.132128,-0.351174 0.05954,-0.01978 0.06694,0.02846 0.03941,0.25679 -0.01863,0.154636 -0.04908,0.348839 -0.06763,0.43156 -0.04701,0.20949 0.08261,0.16145 0.202865,-0.07521 0.107217,-0.210989 0.121452,-0.749526 0.0346,-1.309359 -0.03127,-0.201577 -0.04272,-0.380651 -0.02542,-0.397942 0.01729,-0.01729 0.233987,-0.03433 0.481546,-0.03788 l 0.450106,-0.0064 0.07402,0.177174 c 0.04072,0.09744 0.06696,0.286665 0.05831,0.420484 l -0.01573,0.243312 H 11.70826 11.473293 l -0.03124,0.417716 c -0.03965,0.530093 -0.07562,0.617732 -0.236905,0.577252 -0.105336,-0.02644 -0.123459,-0.01162 -0.123459,0.10054 0,0.111962 0.02381,0.131532 0.160075,0.131532 0.08806,0 0.203646,-0.02332 0.256893,-0.05182 z M 9.7532662,17.298992 c -0.032028,-0.105831 -0.1858316,-0.762965 -0.1858316,-0.793951 0,-0.09563 0.1747257,-0.0013 0.2616454,0.141266 0.1313248,0.215392 0.1480525,0.717954 0.023898,0.717954 -0.043971,0 -0.088848,-0.02937 -0.099712,-0.06526 z M 10.074956,16.97657 c -0.01608,-0.155794 -0.077265,-0.391826 -0.1359506,-0.524514 -0.0953,-0.215414 -0.097828,-0.244663 -0.023606,-0.273141 0.051986,-0.01994 0.1171526,0.01323 0.1739816,0.08858 0.06626,0.08785 0.1233,0.111985 0.210619,0.08914 0.122095,-0.03193 0.307074,0.03732 0.376192,0.140838 0.0575,0.08612 0.04771,0.545892 -0.01408,0.661353 -0.04198,0.07843 -0.110339,0.100991 -0.305982,0.100991 H 10.1042 Z m 1.184235,-0.701172 c -0.340443,-0.249098 -0.404419,-0.346256 -0.36954,-0.561195 0.06907,-0.425571 0.34914,-0.502542 0.668084,-0.1836 0.173979,0.173983 0.202714,0.235246 0.202714,0.432208 0,0.237135 -0.111888,0.461584 -0.230092,0.461584 -0.03715,0 -0.159165,-0.06705 -0.271166,-0.148997 z m -1.091288,-0.164289 c -0.02083,-0.03373 -0.0144,-0.08482 0.01431,-0.113523 0.0348,-0.0348 0.06485,-0.03178 0.09011,0.0091 0.02083,0.03373 0.0144,0.08482 -0.01431,0.113523 -0.0348,0.0348 -0.06485,0.03178 -0.09011,-0.0091 z m 2.584625,-0.287182 c 0,-0.05377 0.03423,-0.07939 0.09137,-0.06839 0.110062,0.0212 0.103114,0.113861 -0.01023,0.137479 -0.0473,0.0098 -0.08108,-0.01892 -0.08108,-0.06909 z M 8.7946567,15.36966 c -0.099284,-0.0993 -0.075163,-0.394774 0.041778,-0.511703 0.2158556,-0.215857 0.626576,-0.07476 0.626576,0.215251 0,0.279316 -0.079307,0.359108 -0.3568961,0.359108 -0.1368363,0 -0.2769895,-0.02819 -0.3114511,-0.06266 z m 7.7695423,-1.128512 c 0,-0.132262 0.28708,-0.396501 0.388493,-0.357584 0.110788,0.0425 0.102388,0.124064 -0.01946,0.189278 -0.0555,0.0297 -0.115821,0.101013 -0.134054,0.158482 -0.0421,0.132618 -0.234982,0.140684 -0.234982,0.0098 z m -2.193016,-0.08809 c 0,-0.04308 0.0235,-0.07833 0.05221,-0.07833 0.02872,0 0.05222,0.03524 0.05222,0.07833 0,0.04308 -0.0235,0.07833 -0.05222,0.07833 -0.02872,0 -0.05221,-0.03524 -0.05221,-0.07833 z m 2.837887,-0.262604 c -0.01944,-0.05063 0.02169,-0.138931 0.105468,-0.226357 0.164013,-0.171189 0.175073,-0.296488 0.03289,-0.372582 -0.06838,-0.0366 -0.104423,-0.10934 -0.104423,-0.210695 0,-0.331158 0.410553,-0.481438 0.697856,-0.255446 0.178414,0.14034 0.178527,0.339017 3.13e-4,0.601593 -0.157675,0.232345 -0.2307,0.296418 -0.503415,0.441673 -0.175241,0.09333 -0.200329,0.09573 -0.228695,0.0218 z m 1.339286,-1.131163 c 0,-0.137808 0.08713,-0.250996 0.193195,-0.250996 0.04061,0 0.06788,0.06293 0.06788,0.156645 0,0.08615 -0.02157,0.156642 -0.04795,0.156642 -0.02637,0 -0.08511,0.01427 -0.130538,0.03169 -0.06122,0.02349 -0.0826,-8.35e-4 -0.0826,-0.09398 z m -0.03468,-0.593899 c -0.01728,-0.04501 -0.0033,-0.109626 0.03126,-0.143593 0.04835,-0.04764 0.07938,-0.0391 0.135797,0.03731 0.04022,0.05448 0.06075,0.119101 0.04561,0.143591 -0.04551,0.07364 -0.179096,0.05019 -0.212675,-0.0373 z M 18.26846,11.84549 c -0.05882,-0.05882 -0.0358,-0.120419 0.04492,-0.120419 0.04308,0 0.07833,0.02211 0.07833,0.04914 0,0.06583 -0.08154,0.11299 -0.123252,0.07128 z m 0.205307,-0.199647 c -0.07383,-0.07969 -0.134268,-0.164942 -0.134268,-0.189466 0,-0.102278 0.0209,-0.122084 0.112434,-0.106579 0.06876,0.01162 0.09643,-0.01565 0.09643,-0.0952 0,-0.07824 0.0273,-0.106205 0.09137,-0.09366 0.0754,0.01475 0.08825,0.06333 0.07358,0.277956 -0.02322,0.339291 -0.07524,0.384248 -0.239554,0.206957 z m 0.113752,-0.638681 c -0.11391,-0.02587 -0.119536,-0.147758 -0.0087,-0.190256 0.137268,-0.05267 0.17848,-0.03659 0.17848,0.06966 0,0.118447 -0.04341,0.149284 -0.169697,0.1206 z m -4.03548,-0.430788 C 14.436118,10.519 14.260404,10.404532 14.161555,10.32201 c -0.156351,-0.130527 -0.170553,-0.161096 -0.109186,-0.23503 0.08928,-0.1075694 0.232989,-0.1073934 0.557536,7.35e-4 0.32417,0.107987 0.387859,0.15857 0.387859,0.308011 0,0.306238 -0.105578,0.349028 -0.445722,0.18065 z m 1.30973,-0.8836797 c -0.03176,-0.05138 0.235839,-0.2650664 0.331934,-0.2650664 0.08938,0 0.0672,0.1314188 -0.03827,0.2268733 -0.104973,0.094989 -0.247126,0.1134787 -0.293656,0.038192 z M 15.650445,9.4276311 c -0.04259,-0.068898 0.01985,-0.1666729 0.08193,-0.1283064 0.06341,0.039195 0.06301,0.1805211 -5.28e-4,0.1805211 -0.02702,0 -0.06366,-0.023497 -0.08141,-0.052214 z M 9.463005,18.14854 c 0,-0.02813 -0.039208,-0.149161 -0.087137,-0.26894 L 9.288732,17.661822 9.193121,17.779905 c -0.1257339,0.155274 -0.1206383,0.239703 0.020438,0.338513 0.1314149,0.09205 0.2494555,0.106304 0.2494555,0.03012 z M 7.6354911,13.290955 c 0,-0.02902 -0.036926,-0.281615 -0.08206,-0.561307 -0.08902,-0.551627 -0.06455,-0.952356 0.058162,-0.952356 0.09208,0 0.1152041,0.111078 0.1470501,0.706414 0.027296,0.510196 0.1053349,0.755597 0.2402947,0.755597 0.1704421,0 0.2031147,-0.09831 0.1272976,-0.38308 -0.100298,-0.376686 -0.096942,-0.765643 0.00656,-0.765643 0.1042646,0 0.1814596,0.211155 0.1814596,0.496356 0,0.125669 0.025063,0.243974 0.055685,0.262904 0.1002463,0.06196 0.111268,-0.01563 0.044561,-0.313736 -0.058408,-0.261014 -0.055922,-0.303363 0.022434,-0.381724 0.1254922,-0.125493 0.2621381,-0.0248 0.2950358,0.217389 0.042329,0.311625 0.127926,0.219705 0.1644489,-0.176599 0.054222,-0.588406 0.3054832,-0.846213 0.3054832,-0.313448 0,0.227502 0.065614,0.369509 0.1375136,0.297609 0.01437,-0.01437 0.05106,-0.194057 0.081519,-0.399294 0.031216,-0.210317 0.096572,-0.423355 0.1497726,-0.488186 0.08902,-0.108493 0.099541,-0.109967 0.1849147,-0.026 0.081106,0.07976 0.083686,0.119573 0.024827,0.382609 -0.036141,0.161472 -0.053422,0.305864 -0.038421,0.32087 0.058882,0.05886 0.1264643,-0.04258 0.1574427,-0.236308 0.038042,-0.237923 0.1421884,-0.343461 0.2919994,-0.295914 0.07422,0.02356 0.106942,0.01078 0.106942,-0.04181 0,-0.04167 -0.04699,-0.08804 -0.104434,-0.10307 -0.05743,-0.01503 -0.104423,-0.05375 -0.104423,-0.08604 0,-0.08924 0.159143,-0.13124 0.259608,-0.0685 0.05514,0.03443 0.117224,0.03758 0.162782,0.0083 0.04051,-0.02609 0.165495,-0.07283 0.277754,-0.103873 0.114151,-0.03157 0.291165,-0.144384 0.401631,-0.255958 0.13629,-0.137658 0.262253,-0.210444 0.406317,-0.234785 0.159783,-0.02701 0.212586,-0.06156 0.224947,-0.147234 0.0115,-0.07958 0.114283,-0.159503 0.355548,-0.276412 0.186668,-0.09045 0.384155,-0.2144649 0.438864,-0.2755869 0.111526,-0.1245973 0.05578,-0.1463253 -0.09065,-0.035344 -0.130397,0.098821 -0.357542,0.015827 -0.588344,-0.2149741 -0.143356,-0.143358 -0.177581,-0.2182358 -0.177581,-0.3885288 0,-0.1677 0.01758,-0.2074855 0.08578,-0.1940643 0.09276,0.018257 0.137967,0.08897 0.20835,0.3259037 0.02489,0.083807 0.07837,0.1633775 0.118859,0.1768223 0.05102,0.016943 0.06303,-0.00178 0.03916,-0.061003 -0.01892,-0.046995 -0.04855,-0.1203648 -0.06583,-0.1630429 -0.02103,-0.051956 0.01524,-0.09533 0.109736,-0.1312627 0.106733,-0.040582 0.131693,-0.075767 0.102355,-0.1443159 -0.02133,-0.049856 -0.0499,-0.1552657 -0.06344,-0.2342403 -0.02068,-0.1205014 -0.0062,-0.1435903 0.0899,-0.1435903 0.08516,0 0.135604,0.053587 0.196599,0.2088587 0.04512,0.1148714 0.112518,0.2088587 0.149778,0.2088587 0.05399,0 0.05238,-0.036764 -0.0078,-0.1810742 -0.04161,-0.099591 -0.07566,-0.2381611 -0.07566,-0.3079335 0,-0.1098922 -0.0227,-0.1258295 -0.169697,-0.1191596 -0.2417,0.010967 -0.218354,-0.1130297 0.04932,-0.2619135 l 0.219015,-0.1218205 0.07789,0.1112051 c 0.08355,0.1192709 0.241196,0.1029127 0.241196,-0.025029 0,-0.1141708 -0.132551,-0.1974895 -0.363455,-0.2284601 -0.272572,-0.03656 -0.272277,-0.1289717 0.0012,-0.38917 0.218831,-0.2081679 0.340799,-0.2187493 0.29018,-0.025175 -0.0196,0.07495 0.0145,0.155854 0.105842,0.2512115 0.170199,0.17765 0.229041,0.5609225 0.102267,0.6661346 -0.10758,0.089286 -0.108746,0.181968 -0.0016,0.1409169 0.107129,-0.04111 0.283399,0.054676 0.283399,0.1539998 0,0.042778 0.05873,0.100111 0.130537,0.1274076 0.137545,0.052294 0.172974,0.1764672 0.06873,0.2408919 -0.100265,0.061969 0.125614,0.1190482 0.23848,0.060264 0.08704,-0.045342 0.09457,-0.092078 0.06532,-0.4067757 -0.01817,-0.1955518 -0.04732,-0.3927652 -0.06478,-0.438252 -0.04578,-0.1192939 -0.210234,-0.1016477 -0.304301,0.032652 -0.05578,0.079643 -0.09756,0.098594 -0.134941,0.061213 -0.03739,-0.037382 -0.0052,-0.1157281 0.10395,-0.2530731 0.19253,-0.2423083 0.194423,-0.2884131 0.02243,-0.5483009 C 13.498177,7.4343925 13.438641,7.3941116 13.282689,7.381109 13.099911,7.365869 13.092547,7.357698 13.106527,7.1856397 13.118147,7.0426782 13.091537,6.9818606 12.97599,6.8872834 c -0.191291,-0.156582 -0.223446,-0.1521189 -0.223446,0.031014 0,0.2097376 -0.08153,0.2432159 -0.189819,0.077946 -0.07618,-0.1162411 -0.07952,-0.15408 -0.0218,-0.246476 0.05953,-0.095325 0.05383,-0.1207617 -0.04499,-0.200786 C 12.353318,6.4334991 11.878815,6.2543541 11.595721,6.2090853 11.420644,6.18109 11.369177,6.146177 11.323126,6.024176 11.256777,5.8483997 10.986563,5.7491125 10.089545,5.5709115 9.2380222,5.401749 8.727583,5.3545721 7.7934686,5.3586984 c -1.085546,0.00481 -1.4060861,0.046723 -1.5058448,0.1969671 -0.076391,0.115048 -0.2186097,0.1542736 -0.2186097,0.060294 0,-0.088509 -0.1127792,-0.058239 -0.2918223,0.078322 -0.1813141,0.1382947 -0.3571499,0.1688105 -0.4167781,0.07233 -0.047159,-0.076303 -0.5141092,-0.032061 -0.6239755,0.059121 -0.073433,0.060945 -0.064702,0.076439 0.076595,0.1358471 0.08771,0.036881 0.159478,0.091686 0.159478,0.121791 0,0.084662 -0.2158066,0.064633 -0.3200469,-0.029704 -0.086758,-0.07851 -0.1075932,-0.07312 -0.2968299,0.076756 -0.2260494,0.1790343 -0.4272521,0.2687553 -0.6026959,0.2687553 -0.1195782,0 -0.5557258,0.3976854 -0.5557258,0.5067182 0,0.08501 -0.1150831,0.1137097 -0.2262559,0.056426 -0.1734756,-0.089386 -0.4165583,0.2636168 -0.3852602,0.5594714 0.00982,0.093121 -0.015638,0.102751 -0.2353636,0.088931 -0.23239,-0.014619 -0.248235,-0.00718 -0.2784452,0.1305357 -0.017614,0.080319 -0.053588,0.2141579 -0.079932,0.297418 -0.026343,0.08326 -0.047897,0.1596243 -0.047897,0.1696975 0,0.010065 0.1395933,0.018316 0.3102064,0.018316 0.1706141,0 0.321792,0.018744 0.3359505,0.041655 0.059114,0.095648 -0.068418,0.1657897 -0.3609728,0.1985311 -0.382951,0.042858 -0.4556906,0.079264 -0.4730146,0.236746 -0.00748,0.067946 -0.029753,0.1881529 -0.049504,0.2671277 -0.030172,0.1206455 -0.019272,0.1435903 0.068212,0.1435903 0.057271,0 0.1347209,0.036869 0.1721187,0.081929 0.057487,0.06927 0.047876,0.099525 -0.062185,0.1958051 l -0.1301828,0.113876 0.1128204,0.2281357 c 0.083462,0.1687696 0.1212625,0.2061355 0.1452632,0.1435907 0.040242,-0.1048707 0.1711853,-0.1106182 0.2100917,-0.0092 0.015893,0.041418 0.014767,0.1623647 -0.00245,0.2687627 -0.030622,0.188677 -0.02794,0.192585 0.1083698,0.158373 0.099326,-0.02493 0.1483274,-0.01276 0.1693674,0.04206 0.023744,0.06189 0.049094,0.06498 0.128094,0.01563 0.081364,-0.05082 0.1116842,-0.04358 0.1743794,0.04162 0.070474,0.09577 0.078417,0.09662 0.1113103,0.01174 0.044142,-0.113861 0.1591688,-0.118871 0.2014146,-0.0087 0.017429,0.04542 0.031695,0.348277 0.031695,0.673005 0,0.503816 0.014655,0.608495 0.09993,0.713682 0.05497,0.06778 0.1162,0.107063 0.1360799,0.08726 0.019886,-0.01981 0.010131,-0.229133 -0.021615,-0.465181 -0.071315,-0.529889 -0.073811,-0.937902 -0.00686,-1.114075 0.066535,-0.174993 0.2101509,-0.177317 0.2101509,-0.0034 0,0.104907 0.025985,0.130537 0.132374,0.130537 0.072808,0 0.1881131,0.03652 0.2562389,0.08117 0.1446953,0.09482 0.161052,0.07587 0.2066999,-0.239505 0.035759,-0.247006 0.2009941,-0.5726586 0.2905747,-0.5726586 0.048695,0 0.080381,0.091161 0.1178806,0.3391516 0.013202,0.08727 0.049535,0.101629 0.2239449,0.08841 0.3156645,-0.02395 0.3743234,-0.05253 0.4417279,-0.2152454 0.059883,-0.1445718 0.076687,-0.1504778 0.4886008,-0.1717085 0.2346216,-0.0121 0.4612716,-0.032053 0.5036668,-0.044347 0.048409,-0.014036 0.083607,0.020219 0.094609,0.092105 0.012701,0.082933 -0.023969,0.1359288 -0.1330995,0.1923621 -0.082839,0.042823 -0.1819018,0.1155548 -0.2201337,0.1616268 -0.053026,0.06389 -0.1219276,0.0759 -0.290547,0.05061 -0.167157,-0.02504 -0.2829243,-0.0055 -0.4749388,0.08034 -0.1396466,0.0624 -0.3478898,0.130195 -0.4627627,0.150662 l -0.2088585,0.03721 v 0.467903 0.467905 l -0.1482077,0.01694 C 4.1685966,11.426903 4.0404292,11.286551 4.0006538,10.986714 3.9680968,10.741277 3.9179378,10.675127 3.848997,10.786686 c -0.018248,0.02953 -0.016447,0.209995 0.00398,0.40103 0.030346,0.283326 0.063433,0.372061 0.1795582,0.481504 0.078303,0.07379 0.1658059,0.17824 0.1944594,0.232105 0.047784,0.08983 0.054948,0.08658 0.086513,-0.03916 0.022659,-0.09027 0.069737,-0.137096 0.1378443,-0.137096 0.056894,0 0.1034341,0.02637 0.1034341,0.0586 0,0.03979 0.025873,0.03714 0.080535,-0.0082 0.1121682,-0.09308 0.1446798,-0.04056 0.3081911,0.497876 0.078488,0.258462 0.1667536,0.493429 0.1961472,0.522147 0.036251,0.03542 0.042534,0.01605 0.019549,-0.06023 -0.1300016,-0.431266 -0.1772726,-1.360793 -0.081958,-1.611498 0.071099,-0.186997 0.1859964,-0.135753 0.1687095,0.07524 -0.00758,0.09209 0.00778,0.205887 0.03407,0.252853 0.039249,0.07011 0.062563,0.05002 0.13046,-0.112482 0.1368444,-0.327515 0.2146962,-0.216179 0.2146962,0.307041 0,0.321331 0.019691,0.466924 0.065265,0.48261 0.04667,0.01606 0.065265,-0.05413 0.065265,-0.246394 0,-0.295508 0.067855,-0.470852 0.182222,-0.470852 0.07809,0 0.088898,0.04588 0.1853272,0.786656 0.068079,0.522954 0.1521623,0.71988 0.1545972,0.362068 0.00298,-0.439163 0.1703439,-0.491056 0.2331417,-0.07229 0.056945,0.379725 0.1029754,0.441185 0.1323606,0.176719 0.039955,-0.359645 0.1643986,-0.311983 0.2627245,0.100628 0.1171401,0.491565 0.2043624,0.471864 0.1693983,-0.03827 -0.017511,-0.255472 -0.00799,-0.425665 0.024941,-0.446019 0.094986,-0.05871 0.1567001,0.08833 0.2112746,0.50332 0.029424,0.223762 0.081938,0.441106 0.1166937,0.482984 0.072214,0.08701 0.2070488,0.102234 0.2070488,0.02336 z M 6.7478423,11.928417 c -0.2065494,-0.123823 -0.469932,-0.359118 -0.469932,-0.419816 0,-0.02215 0.098671,-0.172229 0.2192617,-0.333485 0.2106606,-0.281691 0.2265302,-0.291828 0.4045439,-0.258432 0.2242602,0.04208 0.261874,0.09412 0.2634983,0.364568 6.886e-4,0.114877 0.016068,0.332217 0.034183,0.482988 l 0.032924,0.274125 -0.1508635,-2.09e-4 C 6.9984865,12.038064 6.8483556,11.988678 6.7478415,11.92842 Z M 7.9738617,11.72342 c -0.020274,-0.03281 -0.012302,-0.08423 0.017725,-0.114248 0.070168,-0.07017 0.2337721,-0.0089 0.2052231,0.07679 -0.029065,0.08729 -0.1768182,0.112118 -0.2229522,0.03748 z m 0.5318744,-0.398657 c -0.066197,-0.0662 -0.034409,-0.121832 0.069615,-0.121832 0.05802,0 0.1044296,0.0348 0.1044296,0.07833 0,0.0795 -0.1104548,0.107107 -0.1740487,0.0435 z m 0.5395511,-0.09736 c 0,-0.161724 0.1356163,-0.224517 0.2461559,-0.11397 0.1105384,0.110546 0.047744,0.246156 -0.1139796,0.246156 -0.1066142,0 -0.1321754,-0.02556 -0.1321754,-0.132176 z M 8.0631486,11.05934 c 0.00972,-0.05026 0.052196,-0.09137 0.094486,-0.09137 0.042289,0 0.084812,0.04112 0.094486,0.09137 0.012343,0.06412 -0.015843,0.09137 -0.094486,0.09137 -0.078641,0 -0.1068353,-0.02727 -0.094486,-0.09137 z m 1.6943205,-0.153712 c -0.062396,-0.0624 -0.03371,-0.172629 0.044931,-0.172629 0.043076,0 0.078329,0.03386 0.078329,0.07524 0,0.08723 -0.074527,0.146118 -0.1232479,0.09739 z m -2.1463822,-0.06544 c -0.045912,-0.07428 0.01264,-0.159401 0.109637,-0.159401 0.045749,0 0.071959,0.03667 0.062184,0.08704 -0.020337,0.104874 -0.1245927,0.148771 -0.1718229,0.07235 z m -2.951832,-0.08108 c 0,-0.04787 0.025259,-0.07861 0.056135,-0.06832 0.030878,0.01023 0.056135,0.04103 0.056135,0.06832 0,0.02729 -0.025259,0.05801 -0.056135,0.06832 -0.030867,0.01023 -0.056135,-0.02045 -0.056135,-0.06832 z m 3.8943705,-0.105567 c -0.027766,-0.110618 -0.049003,-0.123149 -0.1327651,-0.07833 -0.265189,0.141924 -0.3379941,0.0038 -0.1545347,-0.292921 0.1140316,-0.184507 0.2568153,-0.235351 0.2568153,-0.09145 0,0.06082 0.031562,0.07615 0.1128712,0.0549 0.062083,-0.01624 0.1585692,-0.0051 0.2144229,0.02483 0.079593,0.04259 0.094637,0.08892 0.069574,0.214256 -0.061835,0.309172 -0.3032277,0.42033 -0.3663794,0.16871 z m 2.1625316,0.07947 c 0,-0.02872 0.03524,-0.05222 0.07833,-0.05222 0.04308,0 0.07833,0.0235 0.07833,0.05222 0,0.02872 -0.03524,0.05221 -0.07833,0.05221 -0.04308,0 -0.07833,-0.0235 -0.07833,-0.05221 z M 5.1117821,10.593758 c -0.019149,-0.01914 -0.034808,-0.07962 -0.034808,-0.134367 0,-0.142302 0.1783463,-0.0956 0.1994366,0.05223 0.016068,0.112627 -0.084139,0.162627 -0.1646269,0.08215 z m 4.6923205,-0.119076 c -0.04591,-0.07428 0.012639,-0.159401 0.1096304,-0.159401 0.045749,0 0.071962,0.03668 0.062183,0.08703 -0.020328,0.104874 -0.1245906,0.148772 -0.1718252,0.07235 z m -2.057336,-0.07283 c -0.063895,-0.07698 -0.028185,-0.138786 0.080177,-0.138786 0.038287,0 0.069615,0.04699 0.069615,0.104423 0,0.12048 -0.065798,0.135569 -0.1497972,0.03435 z m 3.3057774,0.01299 c -0.04355,-0.07044 -0.04151,-0.4452544 0.0028,-0.5169654 0.06388,-0.1033582 0.224945,-0.049658 0.351377,0.1171644 0.150674,0.19881 0.137516,0.274348 -0.06612,0.379657 -0.178112,0.0921 -0.240874,0.09648 -0.288063,0.02013 z m -3.8521744,-0.02993 c -0.052083,-0.0521 -0.041973,-0.226263 0.013131,-0.226263 0.1190108,0 0.2131292,0.07163 0.2131292,0.162231 0,0.09666 -0.1509219,0.139373 -0.2262642,0.06403 z m -0.9381497,-0.08741 c -0.014779,-0.0385 -0.00656,-0.102927 0.018349,-0.143154 0.060926,-0.09858 0.1805138,0.0165 0.1364524,0.131327 -0.038481,0.100265 -0.1185147,0.106381 -0.1547988,0.01186 z M 9.3585752,10.13831 c 0,-0.1559676 0.1706059,-0.3749832 0.252618,-0.3242975 0.1425074,0.088076 0.021912,0.4490505 -0.1500254,0.4490505 -0.073351,0 -0.1025937,-0.03555 -0.1025926,-0.124753 z M 8.8176045,10.07019 c -0.06241,-0.06241 -0.033712,-0.1726301 0.04493,-0.1726301 0.043077,0 0.078324,0.033856 0.078324,0.075238 0,0.08723 -0.074527,0.1461181 -0.1232529,0.097394 z M 3.892194,9.916572 C 3.8518599,9.8114591 3.9358847,9.6684328 4.0513291,9.645713 4.1498253,9.6263277 4.158083,9.678955 4.0861881,9.8680544 4.0282093,10.020542 3.9405103,10.042477 3.8921963,9.9165753 Z M 11.42892,9.7686964 c -0.03348,-0.087241 0.04432,-0.1545298 0.12267,-0.1061027 0.07807,0.04825 0.06295,0.1827524 -0.02053,0.1827524 -0.04001,0 -0.08598,-0.034497 -0.102146,-0.076654 z M 2.8698061,9.6924495 C 2.8516809,9.6231532 2.788749,9.5865283 2.6679114,9.574966 2.4324371,9.5524337 2.4202419,9.373342 2.6489879,9.297093 2.9037078,9.2121866 2.9314823,9.1781366 2.9007082,8.9885001 2.8650513,8.7687738 2.9571923,8.4806263 3.128049,8.2775806 3.2889065,8.0864112 3.3674277,8.0827333 3.5067405,8.2598412 3.7119953,8.5207809 3.5932117,9.0025844 3.1877826,9.5535575 2.9991659,9.8098861 2.9106285,9.8485589 2.8698042,9.6924495 Z m 0.6244084,-0.037467 c -0.073913,-0.073911 -0.032086,-0.1751369 0.072358,-0.1751369 0.072992,0 0.1027598,0.028356 0.091374,0.087048 C 3.6393095,9.6629936 3.550174,9.710946 3.49421,9.6549816 Z M 4.4567593,9.517536 c -0.07985,-0.079848 -0.073657,-0.1773774 0.013387,-0.2107766 0.080454,-0.030875 0.1891139,0.056363 0.1891139,0.1518341 0,0.089249 -0.1333697,0.1280696 -0.2024965,0.058942 z m 2.4233229,0.01728 c -0.045912,-0.074283 0.01264,-0.1594004 0.1096359,-0.1594004 0.045749,0 0.071959,0.036684 0.062185,0.087048 -0.020337,0.1048718 -0.1245929,0.1487713 -0.171823,0.072351 z M 6.2477933,9.2532588 c -0.033804,-0.08808 0.00922,-0.1911324 0.07983,-0.1911324 0.082234,0 0.1006973,0.1490359 0.026128,0.2109217 -0.058838,0.048828 -0.081221,0.044647 -0.105952,-0.019789 z M 6.9915102,9.0795313 c -0.060076,-0.060079 -0.03802,-0.1218342 0.043507,-0.1218342 0.043077,0 0.078324,0.035244 0.078324,0.078322 0,0.081537 -0.061755,0.1035914 -0.1218343,0.043512 z M 10.614907,8.8592098 c -0.09947,-0.1858561 -0.06513,-0.4562811 0.07978,-0.6285117 0.238409,-0.2833335 0.491399,-0.1909621 0.491399,0.179419 0,0.1668761 -0.03202,0.2447265 -0.143591,0.3491935 -0.205534,0.1924392 -0.358886,0.2282674 -0.427588,0.099899 z m -8.6360052,0.011459 c -0.060078,-0.060079 -0.03802,-0.1218342 0.043518,-0.1218342 0.043077,0 0.078324,0.035245 0.078324,0.078322 0,0.081538 -0.061755,0.1035914 -0.1218345,0.043512 z m 9.9371432,-0.044773 c -0.03632,-0.04377 -0.05195,-0.093667 -0.03475,-0.1108783 0.05348,-0.053471 0.192445,0.02633 0.192445,0.1105032 0,0.1022681 -0.07298,0.1024419 -0.157692,3.655e-4 z M 13.701419,8.609991 c 0.02201,-0.1142675 0.173724,-0.1304328 0.173724,-0.018512 0,0.042684 -0.04324,0.085936 -0.09612,0.096119 -0.06978,0.013439 -0.09105,-0.00783 -0.07761,-0.077607 z M 5.6244881,7.949216 C 5.4321289,7.7568556 5.4162142,7.6358575 5.5596937,7.4565252 5.6323377,7.365729 5.9381406,7.3747501 6.0172081,7.47002 6.1058582,7.5768443 6.047831,7.9056198 5.9172786,8.0361768 5.8148752,8.1385802 5.8134342,8.1381512 5.6244974,7.9492152 Z M 13.250797,7.708153 c -0.01651,-0.026733 -0.0061,-0.063367 0.02302,-0.081404 0.0623,-0.038512 0.157496,0.010373 0.157496,0.080876 0,0.063535 -0.141324,0.063947 -0.180522,5.276e-4 z M 2.9492248,7.4088909 c -0.079472,-0.032065 -0.08732,-0.174278 -0.00963,-0.174278 0.089275,0 0.2576399,0.1035639 0.2576399,0.1584809 0,0.052546 -0.1355496,0.06118 -0.2480204,0.015797 z M 4.1207906,6.887603 c -0.07681,-0.07681 -0.036416,-0.2351084 0.055481,-0.2174113 0.050261,0.00968 0.091374,0.062312 0.091374,0.1169598 0,0.1038829 -0.085172,0.1621385 -0.146855,0.1004515 z M 10.164807,6.0808793 c -0.0502,-0.081246 0.109307,-0.2243555 0.207905,-0.1865194 0.04532,0.017385 0.08238,0.07934 0.08238,0.1376766 0,0.077646 -0.03416,0.1060675 -0.127456,0.1060675 -0.07009,0 -0.143369,-0.025751 -0.16282,-0.057225 z M 9.8807216,5.850924 c 0,-0.043077 0.035247,-0.078322 0.078335,-0.078322 0.043076,0 0.07832,0.035244 0.07832,0.078322 0,0.043077 -0.03524,0.078322 -0.07832,0.078322 -0.043076,0 -0.078335,-0.035244 -0.078335,-0.078322 z m -4.3338171,7.032175 c 0,-0.09343 -0.1701166,-0.53538 -0.1960836,-0.509414 -0.021902,0.0219 -0.033906,0.404438 -0.016508,0.526221 0.00639,0.04479 0.212592,0.02849 0.2125917,-0.01681 z M 2.8151949,10.932066 c -0.016672,-0.04166 -0.029044,-0.02928 -0.031543,0.03155 -0.00225,0.05504 0.010032,0.08588 0.027429,0.06852 0.017348,-0.01735 0.01921,-0.06239 0.00409,-0.100078 z M 13.065817,9.452098 c 0,-0.1090947 -0.156308,-0.1612911 -0.213331,-0.071239 -0.07438,0.1174777 -0.05592,0.151199 0.08279,0.151199 0.08241,0 0.130538,-0.029478 0.130538,-0.07996 z M 13.42267,9.34498 c 0.0097,-0.055056 0.05227,-0.1273189 0.09482,-0.1605832 0.06505,-0.050867 0.06643,-0.078032 0.0086,-0.1708939 -0.121618,-0.1954595 -0.224196,-0.1101378 -0.236161,0.1964301 -0.0077,0.1969615 0.0074,0.271051 0.05221,0.2561353 0.03467,-0.011543 0.0709,-0.066032 0.0805,-0.1210883 z m 1.445628,-2.2843921 c 0.04248,-0.060656 0.07724,-0.1761281 0.07724,-0.2566031 0,-0.1080288 0.03416,-0.1593061 0.130537,-0.1959483 0.0718,-0.027297 0.130538,-0.069793 0.130538,-0.094435 0,-0.094134 -0.07007,-0.1078418 -0.175122,-0.034258 -0.218098,0.1527615 -0.40829,0.043541 -0.503742,-0.289275 -0.04286,-0.1494084 -0.03021,-0.1953414 0.09904,-0.3596439 0.254642,-0.3237265 0.279387,-0.6070072 0.03929,-0.4496828 -0.104027,0.06816 -0.130785,0.067521 -0.235177,-0.0056 -0.140429,-0.09836 -0.138268,-0.3685049 0.0036,-0.4573548 0.07131,-0.044648 0.119585,-0.027172 0.237823,0.08611 0.08159,0.078169 0.185439,0.1421253 0.230775,0.1421253 0.09849,0 0.145142,0.150491 0.146109,0.4713677 7.91e-4,0.2621904 0.113716,0.4684964 0.25644,0.4684964 0.07028,0 0.110799,-0.073743 0.164959,-0.3002344 0.09745,-0.4075138 0.09898,-0.4012465 -0.105171,-0.430771 C 15.197849,5.330645 15.1789,5.308191 15.101031,5.0415929 l -0.08388,-0.2871807 -0.220108,0.016748 C 14.605191,4.7857592 14.554069,4.7650302 14.39879,4.6097617 13.914668,4.1256396 14.31273,3.7461664 14.850059,4.179557 c 0.124284,0.1002408 0.278158,0.2094381 0.341942,0.242659 0.06378,0.033222 0.143236,0.1450519 0.176557,0.2485134 0.08388,0.2604739 0.107217,0.2911424 0.15563,0.2046215 C 15.601253,4.7377191 15.442644,4.1796694 15.220004,3.804908 14.690303,2.9132874 14.156916,2.5706008 13.088738,2.4356227 12.80019,2.399161 12.701595,2.4054706 12.604582,2.4666075 c -0.109912,0.069269 -0.128689,0.067446 -0.192113,-0.01865 -0.06799,-0.092272 -0.07645,-0.092134 -0.256736,0.00418 -0.181422,0.096917 -0.19123,0.097019 -0.364277,0.00383 -0.16735,-0.090124 -0.185714,-0.090608 -0.311452,-0.00822 -0.07594,0.049763 -0.236939,0.087548 -0.373012,0.087548 -0.131667,0 -0.302844,0.032173 -0.380392,0.071497 -0.07755,0.039323 -0.305474,0.083009 -0.506499,0.097083 C 9.9455713,2.7230934 9.725652,2.7845075 9.3365435,2.9506148 9.0516143,3.0722487 8.6740813,3.1989117 8.4975814,3.2320883 8.1405726,3.2991949 7.8443343,3.5026112 7.8443343,3.6806488 c 0,0.1060455 -0.04404,0.1284124 -0.2187266,0.1110707 C 7.4850686,3.7777693 7.127628,4.1391712 7.0305355,4.3934058 6.9016893,4.7307828 6.9744399,4.7320232 7.1893205,4.3961118 7.3845157,4.0909597 7.5507914,3.9547086 7.6103593,4.05109 7.6287403,4.0808307 7.5918859,4.1925034 7.5284632,4.2992509 7.3802586,4.5486892 7.3156031,4.770275 7.3795012,4.8097663 7.4067867,4.8266271 7.478356,4.7270837 7.5385523,4.5885582 7.5987507,4.4500325 7.6962738,4.2838262 7.7552766,4.2192105 7.8856754,4.0764073 8.0292426,4.0593741 7.9753294,4.1931036 c -0.072184,0.1790398 -0.090861,0.4693475 -0.032515,0.5054051 0.035728,0.02208 0.058182,-0.00645 0.058182,-0.073927 0,-0.060437 0.058766,-0.1686476 0.1305849,-0.2404693 L 8.2621671,4.2535325 8.4709774,4.4213372 c 0.114846,0.092292 0.2088102,0.2108654 0.2088102,0.263495 0,0.1107234 0.064713,0.1213817 0.2050009,0.033768 0.082623,-0.051597 0.1543352,-0.032947 0.4300625,0.1118415 0.1820001,0.09557 0.3729485,0.2101506 0.4243321,0.2546213 0.072142,0.062434 0.1990974,0.077806 0.5572599,0.067474 0.469084,-0.013532 0.671264,0.040147 0.897723,0.2383371 0.07149,0.062561 0.122487,0.0648 0.295505,0.012962 0.115011,-0.034458 0.269977,-0.047371 0.344373,-0.028699 0.111961,0.028098 0.135267,0.06417 0.135267,0.209313 0,0.09645 0.03268,0.2024886 0.07263,0.235642 0.05837,0.048447 0.08373,0.028455 0.12915,-0.1018501 0.04416,-0.1267147 0.08248,-0.158437 0.175388,-0.1452292 0.09669,0.013747 0.116729,0.046112 0.107415,0.1735109 -0.0092,0.1257874 0.01987,0.1745878 0.147741,0.2479412 0.21032,0.1206515 0.411977,0.073697 0.411977,-0.095929 0,-0.091883 0.05386,-0.1512953 0.20886,-0.2303667 0.130449,-0.06655 0.208857,-0.1429578 0.208857,-0.2035265 0,-0.053337 0.03524,-0.1262255 0.07833,-0.1619762 0.109186,-0.090625 0.231479,0.017906 0.225539,0.2001697 -0.0024,0.076574 0.01334,0.2826534 0.0352,0.4579539 0.03711,0.2977316 0.03164,0.3243894 -0.08296,0.4046637 -0.165854,0.1161685 -0.345922,0.1097778 -0.385104,-0.013671 -0.03699,-0.1165811 -0.166629,-0.1800585 -0.213343,-0.1044725 -0.052,0.084129 0.0177,0.2040492 0.118798,0.2044079 0.05116,1.83e-4 0.134421,0.073074 0.185026,0.161986 0.06902,0.1212772 0.114684,0.1519558 0.182752,0.122822 0.04991,-0.021359 0.155354,-0.049926 0.234329,-0.063482 0.161258,-0.027681 0.164254,-0.033266 0.09113,-0.169878 -0.07173,-0.1340233 0.19337,-0.592936 0.356273,-0.6167469 0.140193,-0.020493 0.195487,0.099223 0.115156,0.2493219 -0.0443,0.082768 -0.04321,0.1538752 0.0044,0.2854276 0.05715,0.1580053 0.04972,0.1984596 -0.07556,0.4122415 -0.14849,0.2533815 -0.170481,0.4158066 -0.08627,0.6372745 l 0.05263,0.1384453 0.261726,-0.2191305 c 0.143917,-0.1205208 0.296455,-0.2687579 0.33894,-0.3294146 z m -0.602538,0.198933 c -0.05555,-0.066936 -0.03047,-0.1123171 0.15847,-0.2867504 0.173638,-0.1603007 0.240346,-0.1940543 0.29457,-0.1490513 0.09699,0.080487 0.09054,0.3064644 -0.0087,0.3064644 -0.04335,0 -0.119064,0.046993 -0.168248,0.1044296 -0.106986,0.1249544 -0.187035,0.1321768 -0.27606,0.024908 z M 12.646807,5.638666 c -0.06488,-0.1706532 -0.06405,-0.2172845 0.0046,-0.2597075 0.0835,-0.051608 0.257782,0.1317409 0.257782,0.2711996 0,0.1744705 -0.19491,0.1659335 -0.262365,-0.011495 z m 2.595708,0.047999 c -0.08044,-0.080436 -0.03379,-0.2273513 0.07216,-0.2273513 0.08122,0 0.103917,0.028165 0.09137,0.1133928 -0.01732,0.1177596 -0.101244,0.1762421 -0.163541,0.1139578 z M 13.901251,5.4593139 c 0,-0.1044296 0.02611,-0.1566439 0.07832,-0.1566439 0.05222,0 0.07833,0.052214 0.07833,0.1566439 0,0.1044296 -0.02611,0.156644 -0.07833,0.156644 -0.05221,0 -0.07832,-0.052214 -0.07832,-0.156644 z M 13.113994,4.8809153 c -0.05965,-0.059656 -0.09491,-0.1438163 -0.07833,-0.1870218 0.01658,-0.043207 0.03014,-0.098328 0.03014,-0.1224933 0,-0.024166 0.06083,-0.1162302 0.135179,-0.2045883 0.229185,-0.2723713 0.637649,-0.1736086 0.503121,0.1216498 -0.06964,0.1528194 -0.371816,0.5009201 -0.434851,0.5009201 -0.02574,0 -0.09561,-0.04881 -0.155271,-0.1084666 z M 9.1587436,4.432816 c 0.010131,-0.052864 0.053435,-0.096118 0.096111,-0.096118 0.1119226,0 0.095755,0.1517185 -0.018514,0.1737245 -0.069778,0.013439 -0.091045,-0.00783 -0.077608,-0.077607 z M 8.7309522,3.9177191 c -0.036333,-0.04377 -0.05105,-0.094581 -0.03272,-0.1129111 0.045278,-0.045277 0.2948424,0.072514 0.2948424,0.1391609 0,0.082016 -0.1878839,0.063202 -0.2621208,-0.026249 z M 12.868576,3.4460883 c -0.149878,-0.1049785 -0.146213,-0.1568207 0.02212,-0.3128207 0.159645,-0.1479536 0.48812,-0.1759049 0.592281,-0.0504 0.223292,0.2690505 -0.303886,0.5807091 -0.614395,0.3632204 z m 1.084889,3.7089582 c 0,-0.073898 -0.04485,-0.1496143 -0.1089,-0.1839003 -0.156804,-0.083919 -0.183572,-0.022896 -0.08273,0.1885836 0.09528,0.199812 0.191627,0.1974574 0.191627,-0.0047 z"
     id="path939"
     inkscape:connector-curvature="0" />
</svg>
