<?xml version="1.0" encoding="UTF-8" standalone="no"?>
<!-- Created with Inkscape (http://www.inkscape.org/) -->

<svg
   xmlns:dc="http://purl.org/dc/elements/1.1/"
   xmlns:cc="http://creativecommons.org/ns#"
   xmlns:rdf="http://www.w3.org/1999/02/22-rdf-syntax-ns#"
   xmlns:svg="http://www.w3.org/2000/svg"
   xmlns="http://www.w3.org/2000/svg"
   xmlns:sodipodi="http://sodipodi.sourceforge.net/DTD/sodipodi-0.dtd"
   xmlns:inkscape="http://www.inkscape.org/namespaces/inkscape"
   id="svg2"
   version="1.1"
   inkscape:version="0.91 r13725"
   width="16"
   height="16"
   viewBox="0 0 16 16"
   sodipodi:docname="dark_eye.svg">
  <metadata
     id="metadata8">
    <rdf:RDF>
      <cc:Work
         rdf:about="">
        <dc:format>image/svg+xml</dc:format>
        <dc:type
           rdf:resource="http://purl.org/dc/dcmitype/StillImage" />
        <dc:title></dc:title>
      </cc:Work>
    </rdf:RDF>
  </metadata>
  <defs
     id="defs6" />
  <sodipodi:namedview
     pagecolor="#ffffff"
     bordercolor="#666666"
     borderopacity="1"
     objecttolerance="10"
     gridtolerance="10"
     guidetolerance="10"
     inkscape:pageopacity="0"
     inkscape:pageshadow="2"
     inkscape:window-width="2560"
     inkscape:window-height="1391"
     id="namedview4"
     showgrid="true"
     inkscape:zoom="17.904106"
     inkscape:cx="48.504717"
     inkscape:cy="-14.648272"
     inkscape:window-x="-1"
     inkscape:window-y="0"
     inkscape:window-maximized="0"
     inkscape:current-layer="svg2">
    <inkscape:grid
       type="xygrid"
       id="grid4138" />
  </sodipodi:namedview>
  <g
     inkscape:groupmode="layer"
     id="layer1"
     inkscape:label="Layer 1" />
  <path
     style="fill:#373737;fill-opacity:1"
     inkscape:connector-curvature="0"
     id="path6"
     d="m 14.019112,8.803869 q -1.1875,-1.9720839 -2.976565,-2.9497694 0.476564,0.869054 0.476564,1.8801646 0,1.5459133 -1.027343,2.6447658 -1.027344,1.098851 -2.4726569,1.098851 -1.4453125,0 -2.4726565,-1.098851 -1.0273438,-1.0988525 -1.0273438,-2.6447658 0,-1.0111106 0.4765627,-1.8801646 -1.7890621,0.9776855 -2.9765625,2.9497694 1.0390628,1.71304 2.6054688,2.728328 1.5664063,1.015289 3.3945313,1.015289 1.8281248,0 3.3945319,-1.015289 1.566406,-1.015288 2.605469,-2.728328 z M 8.3941112,5.5950546 q 0,-0.1671257 -0.109375,-0.2841137 -0.1093751,-0.116988 -0.2656251,-0.116988 -0.9765624,0 -1.6757813,0.7478878 -0.6992191,0.7478876 -0.6992191,1.7924235 0,0.1671257 0.109375,0.2841138 0.109375,0.1169881 0.2656256,0.1169881 0.1562496,0 0.2656247,-0.1169881 0.1093752,-0.1169881 0.1093752,-0.2841138 0,-0.7186407 0.4765624,-1.2283742 0.4765625,-0.5097335 1.1484375,-0.5097335 0.15625,0 0.2656251,-0.116988 0.109375,-0.116988 0.109375,-0.2841139 z M 15.019111,8.803869 q 0,0.2841138 -0.15625,0.5765839 -1.093749,1.9219461 -2.941406,3.0792921 -1.847656,1.157345 -3.9023439,1.157345 -2.0546874,0 -3.9023437,-1.161523 Q 2.2691109,11.294044 1.1753607,9.3804529 1.019111,9.0879828 1.019111,8.803869 q 0,-0.2841137 0.1562497,-0.5765838 1.0937502,-1.9135898 2.9414067,-3.0751138 1.8476563,-1.1615239 3.9023437,-1.1615239 2.0546879,0 3.9023439,1.1615239 1.847657,1.161524 2.941406,3.0751138 0.15625,0.2924701 0.15625,0.5765838 z" />
</svg>
