<?xml version="1.0" encoding="UTF-8" standalone="no"?>
<!-- Created with Inkscape (http://www.inkscape.org/) -->

<svg
   xmlns:dc="http://purl.org/dc/elements/1.1/"
   xmlns:cc="http://creativecommons.org/ns#"
   xmlns:rdf="http://www.w3.org/1999/02/22-rdf-syntax-ns#"
   xmlns:svg="http://www.w3.org/2000/svg"
   xmlns="http://www.w3.org/2000/svg"
   xmlns:sodipodi="http://sodipodi.sourceforge.net/DTD/sodipodi-0.dtd"
   xmlns:inkscape="http://www.inkscape.org/namespaces/inkscape"
   id="svg2"
   version="1.1"
   inkscape:version="0.91 r13725"
   width="16"
   height="16"
   viewBox="0 0 16 16"
   sodipodi:docname="dark_onionOn.svg">
  <metadata
     id="metadata8">
    <rdf:RDF>
      <cc:Work
         rdf:about="">
        <dc:format>image/svg+xml</dc:format>
        <dc:type
           rdf:resource="http://purl.org/dc/dcmitype/StillImage" />
        <dc:title></dc:title>
      </cc:Work>
    </rdf:RDF>
  </metadata>
  <defs
     id="defs6" />
  <sodipodi:namedview
     pagecolor="#ffffff"
     bordercolor="#666666"
     borderopacity="1"
     objecttolerance="10"
     gridtolerance="10"
     guidetolerance="10"
     inkscape:pageopacity="0"
     inkscape:pageshadow="2"
     inkscape:window-width="1883"
     inkscape:window-height="1197"
     id="namedview4"
     showgrid="true"
     inkscape:zoom="29.5"
     inkscape:cx="9.3807842"
     inkscape:cy="8.5120577"
     inkscape:window-x="0"
     inkscape:window-y="1"
     inkscape:window-maximized="0"
     inkscape:current-layer="svg2">
    <inkscape:grid
       type="xygrid"
       id="grid4138" />
  </sodipodi:namedview>
  <g
     inkscape:groupmode="layer"
     id="layer1"
     inkscape:label="Layer 1" />
  <path
     style="fill:#373737;fill-opacity:1;fill-rule:evenodd;stroke:none;stroke-width:1px;stroke-linecap:butt;stroke-linejoin:miter;stroke-opacity:1"
     d="m 13,6.841493 0,1 2,0 0,-1 -2,0"
     id="path4167"
     inkscape:connector-curvature="0" />
  <path
     style="fill:#373737;fill-opacity:1;fill-rule:evenodd;stroke:none;stroke-width:1px;stroke-linecap:butt;stroke-linejoin:miter;stroke-opacity:1"
     d="m 3,6.841493 0,1 -2,0 0,-1 2,0"
     id="path4169"
     inkscape:connector-curvature="0" />
  <path
     style="fill:#373737;fill-opacity:1;fill-rule:evenodd;stroke:none;stroke-width:1px;stroke-linecap:butt;stroke-linejoin:miter;stroke-opacity:1"
     d="m 4,4.800281 0,-1 -1,-1 -1,1 2,1"
     id="path4171"
     inkscape:connector-curvature="0" />
  <path
     style="fill:#373737;fill-opacity:1;fill-rule:evenodd;stroke:none;stroke-width:1px;stroke-linecap:butt;stroke-linejoin:miter;stroke-opacity:1"
     d="m 9.0067274,2.800281 0.9999996,0 0,-2 -0.9999996,0 0,2"
     id="path4220"
     inkscape:connector-curvature="0" />
  <path
     style="fill:#373737;fill-opacity:1;fill-rule:evenodd;stroke:none;stroke-width:1px;stroke-linecap:butt;stroke-linejoin:miter;stroke-opacity:1"
     d="m 12,4.800281 0,-1 1,-1 1,1 -2,1"
     id="path4171-3"
     inkscape:connector-curvature="0" />
  <path
     style="fill:#373737;fill-opacity:1;fill-rule:evenodd;stroke:none;stroke-width:1px;stroke-linecap:butt;stroke-linejoin:miter;stroke-opacity:1"
     d="m 4,9.807008 0,0.999992 -1,1 -1,-1 2,-0.999992"
     id="path4171-5"
     inkscape:connector-curvature="0" />
  <path
     style="fill:#373737;fill-opacity:1;fill-rule:evenodd;stroke:none;stroke-width:1px;stroke-linecap:butt;stroke-linejoin:miter;stroke-opacity:1"
     d="m 12,9.807008 0,0.999992 1,1 1,-1 -2,-0.999992"
     id="path4171-3-6"
     inkscape:connector-curvature="0" />
  <path
     style="fill:#373737;fill-opacity:1;fill-rule:evenodd;stroke:none;stroke-width:1px;stroke-linecap:butt;stroke-linejoin:miter;stroke-opacity:1"
     d="m 6.0134548,2.800281 0.9999996,0 0,-2 -0.9999996,0 0,2"
     id="path4220-2"
     inkscape:connector-curvature="0" />
  <path
     style="color:#000000;display:inline;overflow:visible;visibility:visible;fill:#373737;fill-opacity:1;fill-rule:nonzero;stroke:none;stroke-width:0.1;stroke-linecap:butt;stroke-linejoin:miter;stroke-miterlimit:4;stroke-dasharray:none;stroke-dashoffset:0;stroke-opacity:1;marker:none;enable-background:accumulate"
     clip-path="none"
     d="m 8,3.6385619 c -1.8378745,0 -3.328125,1.4902504 -3.328125,3.328125 0,1.0135908 0.453201,1.9208828 1.1679688,2.53125 0.3058957,0.2612151 0.3692722,1.1343891 0.6308593,1.9023441 l 3.0546875,0 C 9.7969109,10.631525 9.8619657,9.755261 10.171875,9.4881712 10.87997,8.877911 11.328125,7.9748069 11.328125,6.9666869 11.328125,5.1288123 9.837875,3.6385619 8,3.6385619 Z"
     id="path3359"
     inkscape:connector-curvature="0" />
  <path
     style="color:#000000;display:inline;overflow:visible;visibility:visible;fill:#373737;fill-opacity:1;fill-rule:nonzero;stroke:none;stroke-width:0.50641763;stroke-miterlimit:4;stroke-dasharray:none;stroke-opacity:1;marker:none;enable-background:accumulate"
     mask="none"
     clip-path="none"
     d="M 7.582119,15.167344 C 7.5951718,15.355914 7.7675695,15.515 7.9482318,15.515 l 0.1137439,0 c 0.1806625,0 0.3548379,-0.159086 0.3678901,-0.347656 l -0.8477468,0 z"
     id="rect3361"
     inkscape:connector-curvature="0" />
  <path
     style="color:#000000;display:inline;overflow:visible;visibility:visible;fill:#373737;fill-opacity:1;fill-rule:nonzero;stroke:none;stroke-width:0.30000001;stroke-miterlimit:4;stroke-dasharray:none;stroke-opacity:1;marker:none;enable-background:accumulate"
     mask="none"
     clip-path="none"
     d="m 6.2461216,11.815343 0,1.182174 c 0,0.759549 0.5241671,1.385059 1.2381593,1.593457 0.00431,0.07831 0.042435,0.149098 0.092588,0.211026 l 0.8441017,0 c 0.050152,-0.06193 0.090427,-0.132712 0.094749,-0.211026 0.7080376,-0.211868 1.2381593,-0.837992 1.2381593,-1.593457 l 0,-1.182174 -3.5077592,0 z"
     id="path4227"
     inkscape:connector-curvature="0" />
</svg>
