<?xml version="1.0" encoding="UTF-8" standalone="no"?>
<!-- Created with Inkscape (http://www.inkscape.org/) -->

<svg
   xmlns:dc="http://purl.org/dc/elements/1.1/"
   xmlns:cc="http://creativecommons.org/ns#"
   xmlns:rdf="http://www.w3.org/1999/02/22-rdf-syntax-ns#"
   xmlns:svg="http://www.w3.org/2000/svg"
   xmlns="http://www.w3.org/2000/svg"
   xmlns:sodipodi="http://sodipodi.sourceforge.net/DTD/sodipodi-0.dtd"
   xmlns:inkscape="http://www.inkscape.org/namespaces/inkscape"
   id="svg2"
   version="1.1"
   inkscape:version="0.91 r13725"
   width="16"
   height="16"
   viewBox="0 0 16 16"
   sodipodi:docname="light_eye.svg">
  <metadata
     id="metadata8">
    <rdf:RDF>
      <cc:Work
         rdf:about="">
        <dc:format>image/svg+xml</dc:format>
        <dc:type
           rdf:resource="http://purl.org/dc/dcmitype/StillImage" />
        <dc:title></dc:title>
      </cc:Work>
    </rdf:RDF>
  </metadata>
  <defs
     id="defs6" />
  <sodipodi:namedview
     pagecolor="#ffffff"
     bordercolor="#666666"
     borderopacity="1"
     objecttolerance="10"
     gridtolerance="10"
     guidetolerance="10"
     inkscape:pageopacity="0"
     inkscape:pageshadow="2"
     inkscape:window-width="2560"
     inkscape:window-height="1391"
     id="namedview4"
     showgrid="true"
     inkscape:zoom="20.85965"
     inkscape:cx="-10.29301"
     inkscape:cy="8.146933"
     inkscape:window-x="0"
     inkscape:window-y="1"
     inkscape:window-maximized="1"
     inkscape:current-layer="svg2">
    <inkscape:grid
       type="xygrid"
       id="grid4138" />
  </sodipodi:namedview>
  <g
     inkscape:groupmode="layer"
     id="layer1"
     inkscape:label="Layer 1" />
  <path
     style="fill:#cacaca;fill-opacity:1"
     inkscape:connector-curvature="0"
     id="path6"
     d="m 14.015747,8.837511 q -1.1875,-1.9720839 -2.976565,-2.9497694 0.476564,0.869054 0.476564,1.8801646 0,1.5459133 -1.027343,2.6447658 -1.0273443,1.09885 -2.4726573,1.09885 -1.445312,0 -2.472656,-1.09885 -1.027344,-1.0988525 -1.027344,-2.6447658 0,-1.0111106 0.476563,-1.8801646 -1.789063,0.9776855 -2.9765625,2.9497694 1.0390625,1.71304 2.6054685,2.728327 1.566406,1.015289 3.394531,1.015289 1.828125,0 3.3945323,-1.015289 1.566406,-1.015287 2.605469,-2.728327 z M 8.3907457,5.6286966 q 0,-0.1671257 -0.109375,-0.2841137 -0.109375,-0.116988 -0.265625,-0.116988 -0.976562,0 -1.675781,0.7478878 -0.699219,0.7478876 -0.699219,1.7924235 0,0.1671257 0.109375,0.2841138 0.109375,0.1169881 0.265625,0.1169881 0.15625,0 0.265625,-0.1169881 0.109375,-0.1169881 0.109375,-0.2841138 0,-0.7186407 0.476563,-1.2283742 0.476562,-0.5097335 1.148437,-0.5097335 0.15625,0 0.265625,-0.116988 0.109375,-0.116988 0.109375,-0.2841139 z M 15.015746,8.837511 q 0,0.2841138 -0.15625,0.5765839 -1.093749,1.9219451 -2.941406,3.0792911 -1.847656,1.157345 -3.9023443,1.157345 -2.054687,0 -3.902344,-1.161523 -1.8476555,-1.161523 -2.9414055,-3.0751131 -0.15625,-0.2924701 -0.15625,-0.5765839 0,-0.2841137 0.15625,-0.5765838 1.09375,-1.9135898 2.9414055,-3.0751138 1.847657,-1.1615239 3.902344,-1.1615239 2.0546883,0 3.9023443,1.1615239 1.847657,1.161524 2.941406,3.0751138 0.15625,0.2924701 0.15625,0.5765838 z" />
</svg>
